<!-- SVG Placeholder: Pastry Hero -->
<svg width="1600" height="900" viewBox="0 0 1600 900" xmlns="http://www.w3.org/2000/svg">
  <defs>
    <linearGradient id="pastry-grad" x1="0%" y1="0%" x2="100%" y2="100%">
      <stop offset="0%" style="stop-color:#faf3ef;stop-opacity:1" />
      <stop offset="100%" style="stop-color:#f5e6d3;stop-opacity:1" />
    </linearGradient>
  </defs>
  <rect width="1600" height="900" fill="url(#pastry-grad)"/>
  
  <!-- Pastries and desserts -->
  <g transform="translate(800, 450)">
    <!-- Cake 1 (left) -->
    <rect x="-400" y="-150" width="200" height="200" fill="#d4a574" rx="8"/>
    <ellipse cx="-300" cy="-150" rx="100" ry="30" fill="#e8b47a"/>
    <ellipse cx="-300" cy="-140" rx="95" ry="25" fill="#f5deb3" opacity="0.7"/>
    
    <!-- Macarons (center) -->
    <circle cx="-50" cy="-80" r="45" fill="#ffc0cb"/>
    <circle cx="-50" cy="-50" r="45" fill="#f5d5e3"/>
    <circle cx="60" cy="-90" r="45" fill="#e8d4f1"/>
    <circle cx="60" cy="-60" r="45" fill="#d4a5d4"/>
    <circle cx="-150" cy="-20" r="45" fill="#fff8dc"/>
    <circle cx="-150" cy="10" r="45" fill="#ffefd5"/>
    
    <!-- Tart (right) -->
    <ellipse cx="350" cy="-80" rx="100" ry="40" fill="#d4a574"/>
    <ellipse cx="350" cy="-80" rx="95" ry="35" fill="#daa520"/>
    <circle cx="320" cy="-85" r="12" fill="#ff69b4"/>
    <circle cx="350" cy="-90" r="12" fill="#ff1493"/>
    <circle cx="380" cy="-85" r="12" fill="#ff69b4"/>
  </g>
  
  <text x="800" y="750" font-family="serif" font-size="48" fill="#d4a574" text-anchor="middle" opacity="0.3">
    Casa Dulce & Sabores
  </text>
</svg>
